<svg
    xmlns="http://www.w3.org/2000/svg"
    fill="none"
    viewBox="0 0 14 14"
>
    <path
        fill="#000000"
        fill-rule="evenodd"
        d="M3.84372 0.752707C3.80524 0.369437 3.48267 0.0776367 3.09747 0.0776367H0.769897C0.355684 0.0776367 0.0198975 0.413423 0.0198975 0.827637C0.0198975 1.24185 0.355684 1.57764 0.769897 1.57764H2.41901L2.67062 4.08355C2.67053 4.10107 2.67136 4.11866 2.67313 4.13626L3.15538 8.93107C3.15622 8.9394 3.15727 8.94772 3.15852 8.956C3.21027 9.29723 3.3836 9.60827 3.64657 9.83179C3.90875 10.0546 4.24242 10.1755 4.58643 10.1724H10.4378C10.7449 10.1853 11.0482 10.099 11.3026 9.926C11.561 9.75029 11.7548 9.49482 11.8544 9.19863L11.8549 9.19706L13.0932 5.47294L13.0935 5.47177C13.1645 5.25656 13.1833 5.02758 13.1485 4.80367C13.1138 4.58055 13.0268 4.36883 12.8946 4.18579C12.7562 3.99162 12.5715 3.8351 12.3572 3.73045C12.1459 3.62726 11.9125 3.57776 11.6777 3.58623H4.12823L3.84372 0.752707ZM11.4249 12.8221C11.4249 12.1716 10.8976 11.6443 10.2471 11.6443C9.59655 11.6443 9.0692 12.1716 9.0692 12.8221C9.0692 13.4726 9.59655 14 10.2471 14C10.8976 14 11.4249 13.4726 11.4249 12.8221ZM5.10107 11.6443C5.75158 11.6443 6.27892 12.1716 6.27892 12.8221C6.27892 13.4726 5.75158 14 5.10107 14C4.45055 14 3.92321 13.4726 3.92321 12.8221C3.92321 12.1716 4.45055 11.6443 5.10107 11.6443Z"
        clip-rule="evenodd"
    ></path>
</svg>