<svg
    xmlns="http://www.w3.org/2000/svg"
    fill="none"
    viewBox="0 0 14 14"
>
    <path
        stroke="#000000"
        stroke-linecap="round"
        stroke-linejoin="round"
        d="M2 10.12L0.5 10.5L1.5 7.5V1.5C1.5 1.23478 1.60536 0.98043 1.79289 0.792893C1.98043 0.605357 2.23478 0.5 2.5 0.5H10.5C10.7652 0.5 11.0196 0.605357 11.2071 0.792893C11.3946 0.98043 11.5 1.23478 11.5 1.5V3"
    ></path>
    <path
        stroke="#000000"
        stroke-linecap="round"
        stroke-linejoin="round"
        d="M10 12.5L13.5 13.5L13 10.5V6.5C13 6.23478 12.8946 5.98043 12.7071 5.79289C12.5196 5.60536 12.2652 5.5 12 5.5H5.5C5.23478 5.5 4.98043 5.60536 4.79289 5.79289C4.60536 5.98043 4.5 6.23478 4.5 6.5V11.5C4.5 11.7652 4.60536 12.0196 4.79289 12.2071C4.98043 12.3946 5.23478 12.5 5.5 12.5H10Z"
    ></path>
</svg>